<?xml version="1.0" encoding="utf-8"?>
<svg width="447" height="319" xmlns="http://www.w3.org/2000/svg" xmlns:bx="https://boxy-svg.com" viewBox="0 0 447 319"><rect transform="matrix(0.990268, 0.139173, -0.139173, 0.990268, 26.98307, -45.267918)" id="svg_1" height="223.429" width="382.909" y="72.652" x="53.301" stroke-width="0" stroke="#000" rx="30" style="fill: rgb(217, 212, 247);"/><rect id="svg_3" height="223.429" width="382.909" y="33.803" x="30.308" stroke-width="0" fill="#422ad5" stroke="#000" rx="30"/><path d="M 157.344 124.695 C 156.026 116.279 153.212 109.942 148.902 105.683 C 144.593 101.424 138.889 99.244 131.791 99.143 C 126.519 99.143 121.905 100.36 117.95 102.793 C 113.996 105.226 110.725 108.471 108.139 112.527 C 105.554 116.583 103.627 121.197 102.359 126.368 C 101.092 131.54 100.458 136.864 100.458 142.339 C 100.458 151.06 101.701 158.791 104.185 165.534 C 106.669 172.277 110.294 177.576 115.06 181.429 C 119.826 185.282 125.606 187.208 132.399 187.208 C 138.788 187.208 145.126 185.56 151.412 182.265 C 157.699 178.97 162.972 174.381 167.23 168.5 L 174.531 175.193 C 169.563 181.986 164.341 187.132 158.865 190.631 C 153.389 194.129 148.04 196.486 142.818 197.703 C 137.596 198.92 132.907 199.529 128.749 199.529 C 120.941 199.529 113.843 198.135 107.455 195.346 C 101.067 192.557 95.566 188.704 90.952 183.786 C 86.338 178.868 82.789 173.139 80.305 166.599 C 77.821 160.058 76.579 152.986 76.579 145.381 C 76.579 138.486 77.695 131.641 79.925 124.847 C 82.156 118.054 85.477 111.894 89.887 106.367 C 94.299 100.841 99.85 96.43 106.542 93.135 C 113.235 89.839 120.992 88.191 129.814 88.191 C 133.768 88.191 138.103 88.825 142.818 90.093 C 147.534 91.36 151.97 93.211 156.127 95.644 L 155.518 89.256 L 167.23 89.256 L 167.23 124.695 L 157.344 124.695 Z M 183.502 197.095 L 183.502 187.056 C 185.835 186.955 187.787 186.651 189.358 186.144 C 190.93 185.637 192.147 184.47 193.009 182.645 C 193.871 180.82 194.301 177.88 194.301 173.824 L 194.301 115.569 C 194.301 112.832 194.378 110.195 194.53 107.66 C 194.682 105.125 194.809 103.199 194.91 101.88 C 193.288 101.981 191.26 102.058 188.826 102.109 C 186.392 102.16 184.618 102.236 183.502 102.337 L 183.502 90.625 L 227.155 90.625 L 227.155 100.664 C 224.925 100.765 222.998 101.069 221.375 101.576 C 219.753 102.083 218.511 103.224 217.649 104.998 C 216.787 106.773 216.356 109.739 216.356 113.896 L 216.356 172.151 C 216.356 174.888 216.306 177.474 216.204 179.908 C 216.103 182.341 215.951 184.217 215.748 185.535 L 236.129 185.535 C 242.112 185.535 246.802 183.456 250.198 179.299 C 253.596 175.142 255.294 168.906 255.294 160.591 L 265.484 160.591 L 264.572 197.095 L 183.502 197.095 Z M 324.952 199.529 C 314.001 199.529 304.672 197.121 296.965 192.304 C 289.259 187.487 283.378 180.972 279.322 172.759 C 275.266 164.546 273.238 155.42 273.238 145.381 C 273.238 138.486 274.328 131.641 276.508 124.847 C 278.688 118.054 281.958 111.894 286.318 106.367 C 290.679 100.841 296.18 96.43 302.821 93.135 C 309.463 89.839 317.195 88.191 326.017 88.191 C 328.755 88.191 331.847 88.47 335.295 89.028 C 338.743 89.585 342.215 90.422 345.713 91.538 C 349.212 92.653 352.33 94.022 355.068 95.644 L 354.459 89.256 L 366.171 89.256 L 366.171 124.695 L 356.284 124.695 C 355.372 119.017 353.598 114.302 350.961 110.55 C 348.325 106.798 345.029 103.959 341.074 102.032 C 337.12 100.106 332.76 99.143 327.994 99.143 C 322.722 99.143 318.133 100.36 314.229 102.793 C 310.325 105.226 307.106 108.471 304.57 112.527 C 302.036 116.583 300.135 121.197 298.867 126.368 C 297.599 131.54 296.965 136.864 296.965 142.339 C 296.965 151.06 298.182 158.817 300.616 165.61 C 303.05 172.404 306.624 177.753 311.339 181.657 C 316.055 185.561 321.86 187.513 328.754 187.513 C 330.681 187.513 332.963 187.361 335.599 187.056 C 338.235 186.752 340.872 186.296 343.508 185.687 C 346.145 185.079 348.376 184.319 350.2 183.406 L 350.2 169.261 C 350.2 166.523 350.277 163.886 350.429 161.351 C 350.581 158.816 350.708 156.89 350.809 155.572 C 349.187 155.673 347.159 155.749 344.725 155.8 C 342.291 155.851 340.517 155.927 339.401 156.028 L 339.401 144.316 L 379.86 144.316 L 379.86 154.355 C 378.136 154.456 376.641 154.659 375.373 154.963 C 374.106 155.268 373.041 155.851 372.179 156.712 C 371.317 157.574 370.684 158.867 370.278 160.591 C 369.872 162.315 369.669 164.647 369.669 167.588 L 369.669 191.924 L 366.019 191.924 C 363.079 191.924 360.138 192.329 357.197 193.14 C 354.257 193.951 351.113 194.864 347.767 195.878 C 344.624 196.791 341.176 197.627 337.424 198.388 C 333.672 199.149 329.515 199.529 324.952 199.529 Z" style="fill: rgb(255, 255, 255); stroke: rgb(0, 0, 0); stroke-width: 0px; text-wrap-mode: nowrap;"/><defs><bx:export><bx:file format="svg" path="clg.svg" normalization="{&quot;convertTextsToPaths&quot;:true,&quot;removeBoxySVGMetadata&quot;:true}"/><bx:file format="webp" excluded="true"/><bx:file format="png" path="clg.png" excluded="true"/></bx:export></defs></svg>